<svg width="470" height="96" viewBox="0 0 470 96" fill="none" xmlns="http://www.w3.org/2000/svg">
<path d="M8.92635 50.418C8.92635 38.4424 17.3008 29.1049 31.7468 29.1049C42.9686 29.1049 50.9663 34.5901 52.1806 43.4671H43.9736C42.9686 38.6099 38.4045 35.8463 32.333 35.8463H31.2025C21.6974 35.8463 17.0915 42.7553 17.0915 50.4598C17.0915 58.1644 21.6974 65.0733 31.2025 65.0733H32.333C38.4045 65.0733 42.9267 61.8073 43.9736 57.4525H52.1806C50.9663 65.7433 43.0105 71.8148 31.7468 71.8148C16.5471 71.731 8.92635 62.9797 8.92635 50.418Z" fill="#F6F6F6"/>
<path d="M112.854 70.9363V29.9012H120.893V35.6378C123.866 31.7018 128.43 29.0638 135.59 29.0638C142.416 29.0638 148.655 31.618 151.418 37.2708C154.935 31.283 161.593 29.0638 167.665 29.0638C180.729 29.0638 186.047 36.6008 186.047 46.5246V70.8944H178.007V47.6552C178.007 40.6625 174.657 35.7634 167.246 35.7634H166.115C158.746 35.7634 153.47 41.4999 153.47 50.5444V70.8944H145.43V47.6552C145.43 40.6625 142.081 35.7634 134.585 35.7634H133.455C126.085 35.7634 120.893 41.4999 120.893 50.5444V70.8944H112.854V70.9363Z" fill="#F6F6F6"/>
<path d="M196.85 87.3502V29.9012H204.89V35.889C208.072 31.7018 214.646 29.0638 220.55 29.0638C233.698 29.0638 242.868 37.1033 242.868 50.3769C242.868 64.4041 233.614 71.6899 220.717 71.6899C213.725 71.6899 207.528 68.5914 204.89 64.6135V87.2665H196.85V87.3502ZM220.717 65.0322C228.924 65.0322 234.745 59.8819 234.745 50.4187C234.745 40.9556 228.924 35.8052 220.717 35.8052H219.587C211.296 35.8052 204.89 40.9556 204.89 50.4187C204.89 59.8819 211.296 65.0322 219.587 65.0322H220.717Z" fill="#F6F6F6"/>
<path d="M248.772 59.587C248.772 50.7938 255.89 47.2765 265.018 46.6903L280.595 45.6853V44.471C280.595 38.567 276.408 35.7616 269.499 35.7616H268.201C262.799 35.7616 258.696 37.8971 258.109 41.7493H249.902C250.74 34.4635 258.193 29.0201 268.871 29.0201C281.767 29.0201 288.634 35.5103 288.634 44.5966V61.8062C288.634 64.2767 288.886 67.9615 289.221 70.8507H281.6C281.181 68.7989 281.014 64.7792 281.014 64.3605C279.129 68.0452 273.142 71.6462 265.018 71.6462C254.508 71.73 248.772 66.6634 248.772 59.587ZM266.986 65.0304C273.477 65.0304 280.595 62.0575 280.595 55.3579V52.0081L267.614 52.7618C259.659 53.2642 256.853 55.5672 256.853 59.252C256.853 62.6856 259.407 65.0723 265.814 65.0723H266.986V65.0304Z" fill="#F6F6F6"/>
<path d="M296.046 58.2063H304.253C304.672 62.896 309.487 65.0315 315.265 65.0315H316.396C322.719 65.0315 326.655 63.5659 326.655 59.923C326.655 57.3688 324.854 55.8195 318.615 54.6052L311.79 53.3072C303.248 51.6741 298.014 48.7012 298.014 41.6666C298.014 33.5433 305.97 29.1049 315.81 29.1049C328.623 29.1049 334.945 34.4227 335.574 42.6297H327.367C326.948 38.8612 323.263 35.8045 316.354 35.8045H315.224C309.32 35.8045 306.095 37.94 306.095 40.9548C306.095 43.3415 307.561 44.6396 314.219 45.9795L320.625 47.1938C329.251 48.8268 334.736 52.1348 334.736 59.4206C334.736 66.7901 327.618 71.7311 315.768 71.7311C303.374 71.7311 296.548 66.497 296.046 58.2063Z" fill="#F6F6F6"/>
<path d="M340.892 58.2063H349.099C349.517 62.896 354.333 65.0315 360.111 65.0315H361.242C367.564 65.0315 371.5 63.5659 371.5 59.923C371.5 57.3688 369.7 55.8195 363.461 54.6052L356.636 53.3072C348.094 51.6741 342.86 48.7012 342.86 41.6666C342.86 33.5433 350.815 29.1049 360.655 29.1049C373.468 29.1049 379.791 34.4227 380.419 42.6297H372.212C371.793 38.8612 368.109 35.8045 361.2 35.8045H360.069C354.165 35.8045 350.983 37.94 350.983 40.9548C350.983 43.3415 352.448 44.6396 359.106 45.9795L365.513 47.1938C374.138 48.8268 379.624 52.1348 379.624 59.4206C379.624 66.7901 372.505 71.7311 360.655 71.7311C348.219 71.7311 341.394 66.497 340.892 58.2063Z" fill="#F6F6F6"/>
<path d="M100.752 38.2759L95.8113 46.7761C96.0625 47.9066 96.1882 49.1628 96.1882 50.4609C96.1882 59.5472 89.8654 65.0744 81.5747 65.0744H80.4442C79.6067 65.0744 78.7693 64.9906 77.9737 64.9069L69.8504 69.6385C73.0746 71.0622 76.8431 71.8159 80.9885 71.8159C94.6808 71.8159 104.27 63.4413 104.27 50.5027C104.311 45.6874 103.013 41.5839 100.752 38.2759Z" fill="#F6F6F6"/>
<path d="M65.8312 50.4169C65.8312 41.2887 72.0702 35.8034 80.4447 35.8034H81.5752C82.4126 35.8034 83.2501 35.8872 84.0457 35.9709L92.1271 31.2393C88.9029 29.8157 85.1344 29.0201 80.989 29.0201C67.213 29.0201 57.7079 37.3946 57.7079 50.3332C57.7079 55.0648 59.006 59.1683 61.2671 62.5181L66.208 54.0179C65.9568 52.9293 65.8312 51.715 65.8312 50.4169Z" fill="#F6F6F6"/>
<path d="M98.3244 31.4919C98.0732 31.4919 97.78 31.5756 97.5288 31.7012L75.6714 44.4305C75.4201 44.5561 75.2108 44.7654 75.0851 45.0167L62.3559 66.8741C61.6859 68.0465 62.6071 69.3027 63.7377 69.3027C63.9889 69.3027 64.282 69.219 64.5333 69.0933L86.3907 56.3641C86.642 56.2385 86.8513 56.0291 86.9769 55.7779L99.7062 33.9205C100.376 32.7481 99.455 31.4919 98.3244 31.4919ZM83.2503 52.6375C82.036 53.8518 80.0261 53.8518 78.7699 52.6375C77.5556 51.4232 77.5556 49.4133 78.7699 48.1571C79.9842 46.9428 81.9941 46.9428 83.2503 48.1571C84.4646 49.4133 84.4646 51.4232 83.2503 52.6375Z" fill="#F6F6F6"/>
</svg>
